<svg width="17" height="21" viewBox="0 0 17 21" fill="none" xmlns="http://www.w3.org/2000/svg">
<g id="Property 1=Default">
<path id=" &#226;&#134;&#179;Color" fill-rule="evenodd" clip-rule="evenodd" d="M6 17.5H6.5H10.5H11V18C11 19.3761 9.87614 20.5 8.5 20.5C7.11223 20.5 6 19.3745 6 18V17.5ZM7.08536 18.5C7.29074 19.0813 7.84433 19.5 8.5 19.5C9.14884 19.5 9.70605 19.0806 9.91352 18.5H7.08536ZM6.5 2C6.5 0.893858 7.39386 0 8.5 0C9.60614 0 10.5 0.893858 10.5 2V2.2973C13.3944 3.17437 15 5.89023 15 9V13.7929L16.8536 15.6464L17 15.7929V16V17V17.5H16.5H0.5H0V17V16V15.7929L0.146447 15.6464L2 13.7929V9C2 5.88077 3.59648 3.17294 6.5 2.2969V2ZM8.5 1C7.94614 1 7.5 1.44614 7.5 2V2.68V3.07538L7.11528 3.16653C4.52219 3.78092 3 6.09437 3 9V14V14.2071L2.85355 14.3536L1 16.2071V16.5H16V16.2071L14.1464 14.3536L14 14.2071V14V9C14 6.10482 12.4681 3.78076 9.88434 3.16644L9.5 3.07506V2.68V2C9.5 1.44614 9.05386 1 8.5 1Z" fill="#888888"/>
</g>
</svg>
