<svg width="18" height="18" viewBox="0 0 18 18" fill="none" xmlns="http://www.w3.org/2000/svg">
<g id="fe:calendar">
<g id="feCalendar0">
<g id="feCalendar1">
<path id="feCalendar2" fill-rule="evenodd" clip-rule="evenodd" d="M6 3H12V1.5H13.5V3H14.25C14.6478 3 15.0294 3.15804 15.3107 3.43934C15.592 3.72064 15.75 4.10218 15.75 4.5V15C15.75 15.3978 15.592 15.7794 15.3107 16.0607C15.0294 16.342 14.6478 16.5 14.25 16.5H3.75C3.35218 16.5 2.97064 16.342 2.68934 16.0607C2.40804 15.7794 2.25 15.3978 2.25 15V4.5C2.25 4.10218 2.40804 3.72064 2.68934 3.43934C2.97064 3.15804 3.35218 3 3.75 3H4.5V1.5H6V3ZM3.75 6V15H14.25V6H3.75ZM5.25 8.25H6.75V9.75H5.25V8.25ZM8.25 8.25H9.75V9.75H8.25V8.25ZM11.25 8.25H12.75V9.75H11.25V8.25ZM11.25 11.25H12.75V12.75H11.25V11.25ZM8.25 11.25H9.75V12.75H8.25V11.25ZM5.25 11.25H6.75V12.75H5.25V11.25Z" fill="#111111"/>
</g>
</g>
</g>
</svg>
