<svg width="16" height="16" viewBox="0 0 16 16" fill="none" xmlns="http://www.w3.org/2000/svg">
<g id="zondicons:wallet">
<path id="Vector" d="M0 3.19998C0 2.31998 0.72 1.59998 1.6 1.59998H13.6C13.8122 1.59998 14.0157 1.68426 14.1657 1.83429C14.3157 1.98432 14.4 2.1878 14.4 2.39998V3.19998H1.6V3.99998H15.2C15.4122 3.99998 15.6157 4.08426 15.7657 4.23429C15.9157 4.38432 16 4.5878 16 4.79998V12.8C16 13.2243 15.8314 13.6313 15.5314 13.9313C15.2313 14.2314 14.8243 14.4 14.4 14.4H1.6C1.17565 14.4 0.768687 14.2314 0.468629 13.9313C0.168571 13.6313 0 13.2243 0 12.8V3.19998ZM13.2 10.4C13.5183 10.4 13.8235 10.2735 14.0485 10.0485C14.2736 9.82346 14.4 9.51823 14.4 9.19998C14.4 8.88172 14.2736 8.57649 14.0485 8.35145C13.8235 8.1264 13.5183 7.99998 13.2 7.99998C12.8817 7.99998 12.5765 8.1264 12.3515 8.35145C12.1264 8.57649 12 8.88172 12 9.19998C12 9.51823 12.1264 9.82346 12.3515 10.0485C12.5765 10.2735 12.8817 10.4 13.2 10.4Z" fill="#111111"/>
</g>
</svg>
